<svg width="65" height="59" viewBox="0 0 65 59" fill="none" xmlns="http://www.w3.org/2000/svg">
<path d="M34.0571 30.7311C34.0571 30.7311 34.2428 30.5452 34.6143 30.1736C34.9857 29.8019 35.1714 29.0931 35.1714 28.0473C35.1714 27.0015 34.8 26.1069 34.0571 25.3635C33.3143 24.6201 32.4203 24.2485 31.3752 24.2485C30.3302 24.2485 29.4362 24.6201 28.6934 25.3635C27.9505 26.1069 27.5791 27.0015 27.5791 28.0473C27.5791 29.0931 27.9505 29.9877 28.6934 30.7311C29.4362 31.4745 30.3302 31.8461 31.3752 31.8461C32.4203 31.8461 33.3143 31.4745 34.0571 30.7311ZM39.5099 35.1023C39.5099 35.3963 39.4025 35.6506 39.1879 35.8655C38.9732 36.0803 38.719 36.1877 38.4252 36.1877C38.1202 36.1877 37.866 36.0803 37.6626 35.8655L34.7562 32.9654C33.745 33.6664 32.618 34.0169 31.3752 34.0169C30.5674 34.0169 29.7949 33.86 29.0577 33.5463C28.3205 33.2326 27.685 32.8086 27.1512 32.2744C26.6173 31.7401 26.1937 31.1042 25.8801 30.3665C25.5666 29.6287 25.4099 28.8557 25.4099 28.0473C25.4099 27.2389 25.5666 26.4659 25.8801 25.7281C26.1937 24.9904 26.6173 24.3544 27.1512 23.8202C27.685 23.286 28.3205 22.862 29.0577 22.5483C29.7949 22.2346 30.5674 22.0777 31.3752 22.0777C32.183 22.0777 32.9556 22.2346 33.6928 22.5483C34.43 22.862 35.0655 23.286 35.5993 23.8202C36.1331 24.3544 36.5568 24.9904 36.8703 25.7281C37.1839 26.4659 37.3406 27.2389 37.3406 28.0473C37.3406 29.291 36.9904 30.4188 36.2899 31.4306L39.1963 34.3391C39.4053 34.5483 39.5099 34.8027 39.5099 35.1023Z" fill="white"/>
</svg>
