<svg width="14" height="16" viewBox="0 0 14 16" fill="none" xmlns="http://www.w3.org/2000/svg">
<path d="M11.0024 7.43751C11.2689 7.51688 11.5226 7.62461 11.7635 7.76068C12.0045 7.89675 12.2568 8.10369 12.5204 8.38151C12.7841 8.65932 13.0094 8.98674 13.1965 9.36377C13.3836 9.7408 13.5396 10.2284 13.6643 10.8265C13.789 11.4247 13.8514 12.0951 13.8514 12.8378C13.8514 13.711 13.5679 14.4579 13.0009 15.0788C12.434 15.6996 11.7508 16.01 10.9514 16.01H3.68855C2.88913 16.01 2.20594 15.6996 1.63897 15.0788C1.07201 14.4579 0.788528 13.711 0.788528 12.8378C0.788528 12.0951 0.850895 11.4247 0.975627 10.8265C1.10036 10.2284 1.25627 9.7408 1.44337 9.36377C1.63047 8.98674 1.85584 8.65932 2.11948 8.38151C2.38312 8.10369 2.63541 7.89675 2.87637 7.76068C3.11733 7.62461 3.37105 7.51688 3.63752 7.43751C3.18962 6.7288 2.96567 5.95773 2.96567 5.1243C2.96567 4.53465 3.08048 3.97194 3.3101 3.43616C3.53972 2.90038 3.85014 2.43688 4.24134 2.04568C4.63255 1.65447 5.09604 1.34406 5.63182 1.11444C6.1676 0.88482 6.73031 0.77001 7.31996 0.77001C7.9096 0.77001 8.47231 0.88482 9.00809 1.11444C9.54387 1.34406 10.0074 1.65447 10.3986 2.04568C10.7898 2.43688 11.1002 2.90038 11.3298 3.43616C11.5594 3.97194 11.6742 4.53465 11.6742 5.1243C11.6742 5.95773 11.4503 6.7288 11.0024 7.43751ZM9.62892 2.81533C9.62892 2.81533 9.46946 2.65587 9.15054 2.33696C8.83163 2.01804 8.22143 1.85858 7.31996 1.85858C6.41848 1.85858 5.64883 2.1775 5.01099 2.81533C4.37316 3.45317 4.05424 4.22282 4.05424 5.1243C4.05424 6.02577 4.37316 6.79542 5.01099 7.43326C5.64883 8.07109 6.41848 8.39001 7.31996 8.39001C8.22143 8.39001 8.99108 8.07109 9.62892 7.43326C10.2668 6.79542 10.5857 6.02577 10.5857 5.1243C10.5857 4.22282 10.2668 3.45317 9.62892 2.81533ZM10.9514 14.9214C11.4503 14.9214 11.8769 14.7187 12.2313 14.3134C12.5856 13.908 12.7628 13.4161 12.7628 12.8378C12.7628 11.4828 12.5403 10.4141 12.0952 9.63166C11.6501 8.84925 11.0109 8.4382 10.1775 8.39851C9.35536 9.11856 8.40286 9.47858 7.31996 9.47858C6.23706 9.47858 5.28456 9.11856 4.46246 8.39851C3.62902 8.4382 2.98977 8.84925 2.5447 9.63166C2.09963 10.4141 1.8771 11.4828 1.8771 12.8378C1.8771 13.4161 2.05428 13.908 2.40863 14.3134C2.76298 14.7187 3.18962 14.9214 3.68855 14.9214H10.9514Z" fill="#111111"/>
</svg>
